<svg
      xmlns="http://www.w3.org/2000/svg"
      viewBox="0 0 1750.14 812.55"
      width="120"
      height="80"
    >
      <path
        className="cls-1"
        d="m519.07,453.4c7.36-12.44,14.73-24.32,22.09-35.66-15.01-11.36-28.64-24.48-40.62-39.02-14.31,22.51-29.06,48.78-44.26,78.88-31.99,63.32-68.1,143.97-108.34,241.93-3.96-2.79-6.74-8.04-8.35-15.74-1.62-7.69-2.34-16.7-2.16-27.03.18-10.32.98-21.6,2.43-33.85,1.43-12.24,3.14-24.4,5.12-36.47,1.97-12.07,3.95-23.35,5.93-33.85,1.97-10.5,3.5-19.42,4.58-26.76,2.16-12.6,4.31-25.98,6.47-40.15,2.16-14.17,3.68-28.25,4.58-42.25.13-2.09-.23,1.45-.15-.61h-49.94c-.68,6.3-1.09,7.19-2.19,13.99-2.7,16.62-5.48,32.45-8.35,47.49-1.44,8.05-3.15,17.93-5.12,29.65-1.98,11.73-4.04,24.14-6.2,37.26-2.16,13.12-4.13,26.42-5.93,39.88-1.8,13.47-3.15,26.24-4.04,38.31-.9,12.07-1.26,22.92-1.08,32.54.18,9.63,1.35,16.88,3.5,21.78,2.87,7.35,7.45,14.26,13.74,20.73,6.28,6.47,13.38,12.07,21.29,16.79,7.9,4.72,16.35,8.22,25.33,10.5,8.98,2.27,17.6,2.88,25.87,1.84,7.55-17.84,16.62-38.74,27.22-62.71,10.59-23.96,22.18-49.33,34.76-76.09,12.57-26.76,25.96-54.05,40.15-81.87,14.19-27.81,28.74-54.32,43.66-79.51Z"
      />
      <path
        className="cls-1"
        d="m881.53,524.24c12.57-27.99,26.14-54.05,40.69-78.19,10.39-17.24,21.51-33.64,33.27-49.28-12.44-12.37-23.52-26.12-33.06-40.97-21.74,30.85-41.32,62.59-58.7,95.24-17.97,33.77-34.14,68.84-48.51,105.22-.72.71-1.08,1.4-1.08,2.1s-.36,1.4-1.08,2.1c-4.67,10.85-9.52,21.7-14.55,32.54-5.04,10.85-10.24,21.87-15.63,33.06-5.04,10.5-10.24,20.21-15.63,29.13-5.39,8.92-10.78,16.88-16.17,23.88-10.43,11.55-14.2,5.43-11.32-18.37,1.08-12.24,4.31-27.46,9.7-45.66,5.39-18.19,12.75-40.06,22.1-65.6,5.74-15.04,12.21-30.35,19.4-45.92,7.19-15.56,15.09-31.75,23.72-48.54,10.02-19.1,20.34-36.73,30.96-53-24.4,22.71-53.49,40.32-85.61,51.25-3.95,8.41-7.84,16.93-11.65,25.63-8.99,20.47-17.79,42.07-26.41,64.81-1.47,3.8-2.83,7.5-4.21,11.23-14.89,23.74-27.86,42.57-38.9,56.47-14.74,18.55-25.69,28-32.88,28.34-2.52,0-3.86-2.8-4.04-8.4-.19-5.59,1.43-13.81,4.85-24.66,3.41-10.84,8.8-24.14,16.17-39.88,7.36-15.74,17.16-33.76,29.37-54.05,2.51-3.85,2.24-7.95-.81-12.33-3.06-4.37-7.1-8.14-12.13-11.28-5.04-3.15-10.33-5.07-15.9-5.77-5.58-.7-9.62.52-12.13,3.67-4.31,4.55-8.36,9.18-12.13,13.9-3.77,4.72-7.64,9.19-11.59,13.38-6.11-3.49-11.86-7.09-17.24-10.76-5.39-3.67-10.78-6.47-16.17-8.4-5.39-1.92-10.97-2.53-16.71-1.84-5.75.71-12.04,3.67-18.86,8.92-9.35,7.7-18.78,17.67-28.3,29.91-9.53,12.25-18.14,25.45-25.87,39.62-7.72,14.17-14.28,28.78-19.67,43.82-5.39,15.04-8.62,29.21-9.7,42.51-.72,5.25,1.35,10.23,6.2,14.96,4.85,4.72,10.51,8.58,16.98,11.55,6.47,2.97,13.03,4.81,19.67,5.51,6.65.71,11.59-.52,14.82-3.67,6.82-6.3,13.38-13.12,19.67-20.47,6.28-7.35,12.3-14.69,18.06-22.04,5.74-7.35,11.05-14.25,15.9-20.73,4.85-6.47,9.43-12.15,13.74-17.06-2.52,8.05-4.85,16.97-7.01,26.76-2.16,9.8-2.88,17.5-2.16,23.09.35,4.2,2.24,8.49,5.66,12.86,3.41,4.38,7.55,8.05,12.4,11.02,4.85,2.98,10.24,4.9,16.17,5.77,5.93.88,11.59.09,16.98-2.36,10.06-4.54,20.3-12.33,30.72-23.35,6.94-7.34,13.75-15.32,20.45-23.83-2.02,9.44-3.64,18.52-4.83,27.24-4.67,34.29,1.98,55.1,19.94,62.45,12.22,3.85,24.43,3.33,36.65-1.57,5.74-3.85,12.03-11.37,18.86-22.57,3.59-5.95,7.18-12.07,10.78-18.37,3.59-6.3,7.18-12.77,10.78-19.42,2.16-3.5,4.22-6.91,6.2-10.24,1.97-3.32,3.86-6.56,5.66-9.71-9.7,26.59-13.84,47.94-12.4,64.02,1.08,15.74,5.39,27.29,12.94,34.63,7.18,7.35,15.81,11.89,25.87,13.65,8.98,2.1,17.6,2.1,25.87,0,7.55-1.4,12.21-3.67,14.01-6.82-23.36-5.6-32.34-30.61-26.95-75.05,5.39-44.08,20.3-94.11,44.74-150.09Zm-279.19,25.72c-4.31,6.3-9.89,13.82-16.71,22.56-6.83,8.75-13.84,17.5-21.02,26.24-7.19,8.75-14.11,16.71-20.75,23.88-6.65,7.17-11.95,12.33-15.9,15.48,0-4.2,1.62-10.58,4.85-19.15,3.23-8.57,7.45-17.93,12.67-28.08,5.2-10.14,11.32-20.47,18.33-30.96,7.01-10.5,14.64-19.59,22.91-27.29,3.95-4.2,7.18-5.95,9.7-5.25,2.51.7,4.39,2.54,5.66,5.51,1.25,2.98,1.89,6.22,1.89,9.71s-.54,5.95-1.62,7.35Z"
      />
      <path
        className="cls-1"
        d="m1644.9,508.58c-13.79-9.1-36.94-17.59-44.83-16.89l-73.5,12.95c-38.72-18.51-119.44-56.54-134.8-59.42-17.9-3.36,61.09,50.05,87.59,67.73l-85.48,15.05c-4.19-8.96-11-22.81-15.01-27.18-4.09-4.46-1.95,19.23-.47,32.49-2.29,2-3.82,4.63-4.25,8.03-.15,1.16-.17,2.43-.05,3.79.38.1.72.23,1.05.37-24.33,2.33-61.74,6.06-77.42,9.44-22.27,4.81-26.9,7.33-49.91,15.95-9.98,3.74-19.35,7.93-32.64,17.37,1.79-6.3,4.13-14.08,7.01-23.35,2.87-9.26,5.93-19.06,9.16-29.39,3.23-10.31,6.2-20.38,8.89-30.18,2.7-9.79,4.58-18.37,5.66-25.71.72-3.15-.81-6.47-4.58-9.97-3.77-3.5-8.36-6.38-13.74-8.66-5.39-2.27-10.61-3.5-15.63-3.67-5.04-.17-8.62,1.31-10.78,4.46-2.16,3.85-6.02,10.06-11.59,18.63-5.58,8.58-11.95,18.29-19.13,29.13-7.19,10.85-14.92,22.13-23.18,33.85-8.27,11.73-16.17,22.49-23.71,32.28-7.55,9.8-14.38,18.02-20.48,24.66-6.11,6.65-10.78,10.33-14.02,11.02-3.23.71-3.69-2.79-1.35-10.49,2.33-7.69,6.01-16.79,11.05-27.29,5.03-10.5,10.69-20.99,16.98-31.49,6.28-10.5,11.59-18.19,15.9-23.09,3.23-3.49,3.41-7.17.54-11.02-2.88-3.85-6.92-7.09-12.13-9.71-5.21-2.62-10.6-4.28-16.17-4.98-5.58-.7-9.62.35-12.13,3.15-7.19,8.4-14.02,18.02-20.48,28.86-3.83,6.42-7.37,13-10.69,19.72-6.46,12.05-14.57,24.37-24.34,36.95-11.14,14.35-22.46,27.21-33.96,38.57-11.5,11.37-22.55,20.56-33.15,27.55-10.6,7-18.78,9.97-24.52,8.92-3.96-.7-6.11-3.76-6.47-9.19-.36-5.42,0-11.63,1.08-18.63,1.08-7,2.69-13.91,4.85-20.73,2.16-6.82,4.13-11.98,5.93-15.48,6.47,2.8,12.4,4.55,17.79,5.25,5.39.7,11.67.18,18.86-1.58,10.06-3.15,19.14-9.35,27.22-18.63,8.08-9.27,14.91-19.24,20.48-29.91,5.57-10.67,9.88-20.9,12.94-30.7,3.05-9.79,4.58-16.61,4.58-20.47.72-8.04-3.23-14.69-11.86-19.94-6.11-3.49-11.59-6.73-16.44-9.71-4.85-2.97-9.62-5.25-14.28-6.82-4.67-1.57-9.16-2.27-13.47-2.1-4.31.18-8.99,1.49-14.01,3.93-8.27,4.55-17.07,11.73-26.41,21.52-9.35,9.8-18.24,21.17-26.68,34.11-8.45,12.95-16.08,26.76-22.91,41.46-6.82,14.69-11.94,28.86-15.36,42.51-3.41,13.65-4.76,26.33-4.04,38.05.72,11.73,4.5,21.08,11.32,28.08,3.23,3.15,7.37,6.48,12.4,9.97,5.03,3.5,10.59,6.56,16.71,9.19,6.11,2.62,12.21,4.29,18.33,4.98,6.11.71,11.86-.34,17.25-3.15,11.5-6.3,23.18-14.34,35.04-24.14,11.86-9.79,23.18-20.64,33.96-32.54.43-.48.84-.98,1.26-1.46.69,2.52,2.05,5.02,4.12,7.49,3.96,4.72,8.89,8.66,14.82,11.81,5.93,3.15,12.13,5.25,18.6,6.3,6.47,1.05,11.67.35,15.63-2.1,6.47-4.2,13.38-9.62,20.75-16.27,7.36-6.64,14.64-13.99,21.83-22.04,7.19-8.04,14.28-16.53,21.29-25.45,7-8.92,13.21-17.75,18.6-26.5-1.08,3.85-2.7,8.49-4.85,13.91-2.16,5.43-4.31,11.02-6.47,16.79-2.16,5.77-4.41,11.37-6.74,16.79-2.34,5.43-4.41,9.89-6.2,13.38-1.8,3.5-8.36,9.8-19.67,18.89-11.32,9.1-24.25,19.6-38.81,31.49-14.55,11.9-29.01,24.76-43.39,38.57-14.37,13.82-25.69,27.2-33.96,40.14-6.47,10.14-8.36,19.16-5.66,27.03,2.69,7.87,7.37,14.34,14.01,19.42,6.65,5.07,14.11,8.57,22.37,10.5,8.27,1.92,14.74,2.01,19.41.26,12.21-4.55,24.61-13.12,37.19-25.71,12.57-12.6,24.61-26.86,36.11-42.77,11.5-15.92,22.1-32.62,31.8-50.12,9.7-17.49,18.14-33.41,25.33-47.76,2.51-4.9,6.28-9.26,11.32-13.12,11.13-9.09,22.72-17.75,34.76-25.98,0,0,78.65-48.89,140.43-60.3,6.49,2.74,6.56,11.8,17.32,10.84l119.45-13.08c-2.08,30.14-5.92,95.28,1.25,74.43,4.78-13.91,22.31-60.08,29.04-77.74l61.36-6.72c11.05-.97,50.51-1.5,51.86-12.06.04-.31.04-.63.02-.96-.31-3.52-4.56-7.66-10.65-11.68Zm-635.39-7.34c-15.86,77.46-49.04,69.8-49.04,69.8,23.73-50.61,49.04-69.8,49.04-69.8Zm24.78,278.14s-5.42-9.93,70.59-80.82c0,0-27.58,47.78-70.59,80.82Z"
      />
      <polygon
        className="cls-1"
        points="331.94 420.14 414.46 420.14 414.46 8.53 331.33 8.53 206.72 184.12 85.58 8.53 0 8.53 0 420.14 80.08 420.14 80.08 124.46 203.56 299.19 331.94 123.35 331.94 420.14"
      />
      <polygon
        className="cls-1"
        points="1673.12 8.53 1673.12 282.92 1474.44 8.53 1399.86 8.53 1399.86 420.14 1477.5 420.14 1477.5 142.19 1682.9 420.14 1750.14 420.14 1750.14 8.53 1673.12 8.53"
      />
      <path
        className="cls-1"
        d="m1130.39,429.01c6.53,0,12.99-.3,19.37-.89,2.9-.24,5.77-.55,8.63-.94,1.57-5.54,2.88-13.27,3.38-21.51.63-10.65-.11-22.12-3.47-30.74-.33-.89-.7-1.79-1.13-2.71-6.09-13.06-19.64-25.42-46.44-33.18-3.11-.9-6.27-1.65-9.43-2.34-7.25-1.6-25.82-6.01-44-12.92-22.86-8.69-38.23-12.44-67.14-29.45-2.19-1.29-4.46-2.55-6.78-3.79-28.76-15.47-46.66-45.5-46.23-78.16.01-.87.03-1.75.05-2.62,2.81-105.68,91.42-190.08,197.11-187.97,104.92,2.09,189.32,87.79,189.32,193.21,0,21.99-3.67,43.14-10.44,62.84l-101.26-133.41-37.4,51.05-5.92-8.38-25.59,36.92-25.9-35.11-78.17,112.64c10.76,11.99,44.43,21.97,109.23,27.56,28.65,2.49,49.3,11.51,64.21,22.6,8.95,6.62,16.55,16.51,22.49,25.87,4.34,6.81,7.8,13.34,10.26,18.1,2.73-1.73,5.4-3.53,8.04-5.37.28-.1.56-.28.85-.58,54.06-38.34,89.57-101.12,90.37-172.24,1.33-117.4-93.54-214.83-210.93-216.48-119.6-1.68-217.1,94.79-217.1,214s95.83,214.02,214.02,214.02Z"
      />
      <path
        className="cls-1"
        d="m682.17,431.97c119.28.72,216.57-95.39,217.29-214.67C900.19,98.01,804.08.74,684.79,0c-119.28-.72-216.55,95.39-217.27,214.67-.72,119.28,95.39,216.55,214.65,217.29Zm-123.78-301.87c-.43,0-.86-.03-1.29-.08-.13-.01-.25-.04-.38-.06-.29-.04-.59-.09-.88-.16-.15-.03-.29-.07-.43-.11-.27-.07-.53-.15-.79-.24-.14-.05-.29-.1-.43-.16-.26-.1-.51-.21-.76-.32-.13-.06-.27-.12-.4-.19-.26-.14-.52-.28-.78-.44-.11-.06-.21-.12-.32-.19-.71-.46-1.37-.98-2-1.58-.1-.1-.2-.21-.3-.31-.2-.2-.4-.41-.58-.62-.12-.14-.23-.28-.35-.42-.16-.19-.31-.39-.46-.59-.12-.16-.24-.33-.35-.5-.13-.19-.25-.39-.37-.58-.12-.19-.23-.38-.34-.57-.1-.18-.19-.37-.29-.55-.11-.22-.23-.45-.33-.68-.05-.11-.09-.22-.14-.33-.44-1.05-.79-2.15-1.03-3.31,0-.03-.01-.05-.02-.08-.1-.46-.16-.93-.22-1.41-.02-.15-.04-.29-.06-.44-.04-.39-.05-.78-.06-1.17,0-.18-.02-.36-.02-.54,0-.29.02-.57.04-.86.01-.26.01-.53.04-.79.03-.3.08-.6.12-.9.03-.25.06-.5.11-.75.05-.3.12-.58.19-.87.06-.24.11-.47.18-.71.08-.28.17-.56.26-.84.08-.22.15-.45.24-.66.1-.27.21-.54.33-.81.09-.21.19-.42.29-.62.13-.26.26-.51.39-.76.11-.2.23-.39.35-.59.14-.23.29-.47.44-.69.14-.21.3-.4.45-.6.15-.19.29-.39.45-.58.31-.37.64-.72.98-1.05.31-.3.64-.58.97-.85.09-.08.19-.14.29-.21.24-.18.49-.36.74-.53.13-.09.27-.16.4-.24.23-.14.46-.27.69-.39.15-.08.3-.15.45-.22.23-.11.47-.21.7-.3.16-.06.31-.12.47-.17.25-.09.5-.16.76-.23.15-.04.3-.09.46-.12.28-.06.57-.11.86-.15.13-.02.26-.05.39-.06.42-.05.85-.08,1.29-.08,2.55,0,4.96.85,6.99,2.32,0,0,0,0,0,0,0,0,0,0,0,0,3.82,2.73,6.37,7.68,6.37,13.3,0,8.62-5.96,15.59-13.3,15.63h-.06Zm-8.84,85.17c.34-.27.69-.54,1.05-.79.21-.15.42-.28.63-.42.35-.23.71-.45,1.08-.66.24-.13.48-.25.72-.38.36-.19.73-.37,1.1-.54.27-.12.55-.22.82-.33.36-.14.72-.28,1.1-.4.32-.1.64-.18.97-.27.35-.09.69-.2,1.04-.27.4-.08.81-.14,1.22-.2.29-.04.58-.1.87-.13.7-.07,1.41-.11,2.12-.11.02,0,.03,0,.04,0,.46,0,.92.02,1.36.06,0,0,0,0,0,0,0,0,0,0,0,0,10.74.7,19.23,9.7,19.23,20.72,0,5.28-1.96,10.07-5.15,13.75,0,0,0,0,0,0,0,0,0,0,0,0-3.78,4.32-9.3,7.03-15.44,7.03-11.36,0-20.57-9.3-20.57-20.78,0-.71.04-1.41.11-2.11,0-.06.02-.12.02-.17.07-.62.16-1.22.28-1.82.03-.17.08-.33.12-.49.11-.49.22-.97.37-1.44.06-.2.13-.38.19-.58.15-.44.3-.87.47-1.29.08-.19.16-.37.25-.56.19-.42.38-.84.59-1.25.09-.16.18-.32.27-.48.24-.42.48-.84.75-1.24.08-.13.17-.25.25-.37.3-.43.61-.86.94-1.27.07-.08.13-.17.2-.25.33-.39.67-.77,1.03-1.14.14-.14.28-.29.42-.43.33-.32.67-.63,1.01-.93.18-.15.36-.3.54-.44Zm44.58,114.46c.2-1.42,2.18-1.55,2.6-.18,2.12,6.7,6.2,12.68,12.2,16.94,8.25,5.87,18.4,7.29,27.93,4.82,1.4-.35,2.34,1.44,1.22,2.34-9.83,7.84-23.34,8.99-33.3,1.9-8.25-5.85-11.96-15.85-10.65-25.81Zm-42.64-20.79c1.18.07,1.48,1.72.37,2.12-9.63,3.65-20.46,1.16-26.46-6.86-4.96-6.64-5.35-15.35-1.81-22.8.5-1.05,2.07-.66,2.07.5-.04,5.77,1.66,11.46,5.26,16.27,4.96,6.66,12.53,10.31,20.57,10.77Zm-37.31-161.55c1.03-.55,2.07.72,1.35,1.64-3.47,4.59-5.52,10.17-5.52,16.2,0,8.28,3.87,15.74,10.04,20.94.9.76.17,2.23-.98,1.92-9.91-2.84-17.09-11.33-17.09-21.35,0-8.28,4.91-15.5,12.2-19.35Zm239.23,204.12c0,.28-.02.56-.04.84-.01.21-.01.42-.03.62-.02.27-.07.53-.11.79-.03.23-.06.46-.1.69-.05.25-.11.49-.17.73-.06.24-.11.47-.18.7-.07.23-.14.46-.22.68-.08.24-.16.47-.25.7-.08.22-.17.43-.27.64-.1.23-.21.45-.32.67-.11.21-.21.42-.33.62-.11.2-.23.39-.35.59-.14.22-.27.44-.42.65-.09.13-.19.26-.29.39-.19.26-.38.51-.58.76-.34.41-.71.8-1.1,1.18-.05.05-.1.09-.15.13-.34.32-.68.62-1.05.91-.09.07-.19.14-.28.21-.33.25-.67.48-1.01.71-.12.08-.25.15-.37.23-.33.2-.67.38-1.01.55-.15.07-.3.15-.45.22-.33.15-.68.29-1.02.42-.17.06-.33.13-.5.18-.35.12-.7.21-1.06.31-.17.05-.35.1-.52.14-.38.08-.77.14-1.16.2-.16.02-.31.06-.47.07-.55.06-1.11.1-1.68.1-.03,0-.05,0-.08,0-.53,0-1.06-.03-1.58-.09-.21-.02-.41-.06-.61-.09-.33-.05-.67-.1-1-.17-.23-.05-.46-.12-.69-.18-.29-.08-.58-.15-.86-.25-.24-.08-.46-.17-.69-.26-.26-.1-.53-.2-.78-.32-.23-.1-.45-.21-.68-.33-.25-.13-.49-.26-.73-.39-.22-.13-.43-.26-.64-.39-.23-.15-.46-.31-.69-.47-.2-.14-.39-.29-.58-.44-.23-.18-.45-.38-.67-.57-.17-.15-.34-.3-.5-.46-.23-.23-.45-.46-.66-.7-.14-.15-.28-.3-.41-.46-.11-.13-.22-.28-.33-.42-.2-.25-.39-.51-.58-.78-.08-.11-.15-.23-.22-.34-.2-.3-.38-.61-.56-.93-.06-.1-.11-.21-.17-.31-.18-.34-.34-.68-.49-1.03-.04-.1-.09-.2-.13-.3-.15-.37-.28-.74-.41-1.12-.03-.1-.06-.19-.09-.29-.12-.4-.22-.81-.31-1.22-.02-.08-.04-.16-.06-.24-.09-.47-.17-.94-.22-1.43,0-.03,0-.05-.01-.08-.05-.52-.08-1.05-.08-1.59,0-3.32,1.01-6.38,2.77-8.91,2.8-4.06,7.45-6.72,12.71-6.72s10.18,2.8,12.95,7.07c0,0,0,0,0,0,1.59,2.45,2.53,5.39,2.53,8.56Zm-37.4,28.41c2.12,6.7,6.2,12.68,12.2,16.94,8.25,5.87,18.4,7.29,27.93,4.82,1.4-.35,2.34,1.44,1.22,2.34-9.83,7.84-23.34,8.99-33.3,1.9-8.25-5.85-11.96-15.85-10.65-25.81.2-1.42,2.18-1.55,2.6-.18Zm162.49-162.75c-.18,29.59-6.94,57.58-18.87,82.64-27.8,23.47-62.64,38.85-100.88,42.56-3.49-8.1-11.49-13.76-20.81-13.76s-16.92,5.39-20.55,13.16c0,0,0,0,0,0,0,0,0,0,0,0-35.07-4.43-67.09-18.69-93.16-39.96-16.44-13.39-30.52-29.57-41.53-47.8,0,0,0,0,0,0,6.03-5.57,9.8-13.58,9.8-22.45,0-16.83-13.51-30.44-30.17-30.44-.41,0-.81,0-1.2.04,0,0,0,0,0,0,0,0,0,0,0,0-3.19-13.62-4.89-27.8-4.89-42.4,0-7.23.42-14.37,1.24-21.4,0,0,0,0,0,0,0,0,0,0,0,0,.31.04.61.04.92.04,10.81,0,19.56-10.26,19.56-22.9,0-8.69-4.11-16.24-10.18-20.09,0,0,0,0,0,0,7.45-20.02,18.28-38.41,31.83-54.44,25.74-12.32,54.61-19.13,85.08-18.95,107.71.65,194.49,88.49,193.84,196.18Z"
      />
      <path
        className="cls-1"
        d="m624.07,102.05c6.86,0,12.43-5.62,12.43-12.55s-5.56-12.55-12.43-12.55-12.43,5.62-12.43,12.55,5.56,12.55,12.43,12.55Z"
      />
      <path
        className="cls-1"
        d="m644,49.96c3.81,0,6.89-3.11,6.89-6.96s-3.09-6.96-6.89-6.96-6.89,3.11-6.89,6.96,3.09,6.96,6.89,6.96Z"
      />
      <ellipse
        className="cls-1"
        cx="856.08"
        cy="239.39"
        rx="13.72"
        ry="13.86"
      />
      <ellipse className="cls-1" cx="766.41" cy="127.58" rx="22.3" ry="22.52" />
      <ellipse
        className="cls-1"
        cx="706.08"
        cy="194.56"
        rx="12.34"
        ry="12.46"
      />
      <path
        className="cls-1"
        d="m827.85,293.94c3.73,0,6.75-3.05,6.75-6.81s-3.02-6.81-6.75-6.81-6.75,3.05-6.75,6.81,3.02,6.81,6.75,6.81Z"
      />
      <ellipse className="cls-1" cx="647.68" cy="281.32" rx="9.57" ry="9.66" />
    </svg>